<?xml version="1.0" standalone="no"?>
<!DOCTYPE svg PUBLIC "-//W3C//DTD SVG 20010904//EN"
 "http://www.w3.org/TR/2001/REC-SVG-20010904/DTD/svg10.dtd">
<svg version="1.0" xmlns="http://www.w3.org/2000/svg"
 width="961.000000pt" height="600.000000pt" viewBox="0 0 961.000000 600.000000"
 preserveAspectRatio="xMidYMid meet">
<metadata>
Created by potrace 1.16, written by Peter Selinger 2001-2019
</metadata>
<g transform="translate(0.000000,600.000000) scale(0.100000,-0.100000)"
fill="#000000" stroke="none">
<path d="M0 2965 l0 -2965 4805 0 4805 0 0 1535 c0 844 -2 1535 -5 1535 -2 0
-128 -107 -278 -238 -150 -131 -300 -259 -333 -284 -109 -84 -248 -170 -369
-228 -123 -60 -331 -138 -320 -120 10 16 -17 11 -29 -5 -16 -21 -258 -63 -437
-75 -253 -17 -563 10 -794 70 -603 156 -1215 564 -1844 1231 -535 567 -945
879 -1551 1183 -465 232 -839 356 -1450 481 -960 195 -1380 310 -1681 460
-125 62 -184 104 -354 254 -82 72 -153 131 -157 131 -4 0 -8 -1334 -8 -2965z"/>
</g>
</svg>
