<svg id="e8nnl44du8xp1" xmlns="http://www.w3.org/2000/svg" xmlns:xlink="http://www.w3.org/1999/xlink" viewBox="0 0 488.960000 217.380000" shape-rendering="geometricPrecision" text-rendering="geometricPrecision">
    <style><![CDATA[#e8nnl44du8xp8_to {animation: e8nnl44du8xp8_to__to 2500ms linear infinite normal forwards}@keyframes e8nnl44du8xp8_to__to { 0% {transform: translate(247.109995px,108.690006px)} 10% {transform: translate(247.109995px,108.690006px)} 20.333333% {transform: translate(299.361064px,69.639208px)} 26.666667% {transform: translate(299.361064px,69.639208px)} 40% {transform: translate(200.361064px,69.639208px)} 46.666667% {transform: translate(200.361064px,69.639208px)} 58.333333% {transform: translate(247.109995px,108.690006px)} 90% {transform: translate(247.109995px,108.690006px)} 100% {transform: translate(247.109995px,108.690006px)} }]]></style>
    <g id="e8nnl44du8xp2">
        <path id="e8nnl44du8xp3" d="M90.400000,328.580000L87.770000,331.200000L90.400000,328.580000L89.060000,327.350000L90.400000,328.570000L166.230000,252.750000L90.400000,328.580000L166.230000,398.090000Z" transform="matrix(1 0 0 1 -70.89000000000000 -216.72999999999999)" fill="none" stroke="rgb(72,192,181)" stroke-width="27"/>
        <g id="e8nnl44du8xp4">
            <path id="e8nnl44du8xp5" d="M318,216.730000C378.027829,216.730000,426.690000,265.392171,426.690000,325.420000C426.690000,385.447829,378.027829,434.110000,318,434.110000C257.972171,434.110000,209.310000,385.447829,209.310000,325.420000C209.310000,296.593620,220.761235,268.947893,241.144564,248.564564C261.527893,228.181235,289.173620,216.730000,318,216.730000Z" transform="matrix(1 0 0 1 -70.89000000000000 -216.72999999999999)" fill="none" stroke="none" stroke-width="1"/>
            <path id="e8nnl44du8xp6" d="M318,242.460000C272.160366,242.460000,235,279.620366,235,325.460000C235,371.299634,272.160366,408.460000,318,408.460000C363.839634,408.460000,401,371.299634,401,325.460000C401,279.620366,363.839634,242.460000,318,242.460000M318,216.730000C378.027829,216.730000,426.690000,265.392171,426.690000,325.420000C426.690000,385.447829,378.027829,434.110000,318,434.110000C257.972171,434.110000,209.310000,385.447829,209.310000,325.420000L209.310000,325.420000C209.310000,296.593620,220.761235,268.947893,241.144564,248.564564C261.527893,228.181235,289.173620,216.730000,318,216.730000Z" transform="matrix(1 0 0 1 -70.89000000000000 -216.72999999999999)" fill="rgb(72,192,181)" stroke="none" stroke-width="1" stroke-dashoffset="1204.570000"/>
        </g>
        <path id="e8nnl44du8xp7" d="M540.330000,328.580000L543,331.200000L540.360000,328.580000L541.710000,327.350000L540.360000,328.570000L464.500000,252.750000L540.330000,328.580000L464.500000,398.090000Z" transform="matrix(1 0 0 1 -70.89000000000000 -216.72999999999999)" fill="none" stroke="rgb(72,192,181)" stroke-width="27"/>
        <g id="e8nnl44du8xp8_to" transform="translate(247.109995,108.690006)">
            <circle id="e8nnl44du8xp8" r="29.600000" transform="translate(0.000005,-0.000006)" fill="rgb(72,192,181)" stroke="none" stroke-width="1" stroke-dashoffset="185.980000"/>
        </g>
    </g>
</svg>